<svg version="1.1" viewBox="0 0 48 48" xmlns="http://www.w3.org/2000/svg">
	<path d="M0 0h48v48H0z" fill="none"/>
	<path d="m24 4.0391c-0.64 0-1.2802 0.28156-1.6602 0.85156l-8.7598 13.109h-9.5801c-1.1 0-2 0.9-2 2 0 0.19 0.030312 0.36906 0.070312 0.53906l5.0703 18.541c0.47 1.68 2.0194 2.9199 3.8594 2.9199h26c1.84 0 3.3896-1.2397 3.8496-2.9297l5.0703-18.541c0.05-0.16 0.080078-0.3393 0.080078-0.5293 0-1.1-0.9-2-2-2h-9.5801l-8.7598-13.109c-0.38-0.58-1.0202-0.85156-1.6602-0.85156zm0 5.1602 6 8.8008h-12l6-8.8008zm-1 15.512h2v5h5v2h-5v5h-2v-5h-5v-2h5v-5z"/>
</svg>
