<svg width="50mm" height="50mm" version="1.1" viewBox="0 0 50 50" xmlns="http://www.w3.org/2000/svg">
	<g transform="translate(0,-247)">
		<g transform="translate(-79.865 123.62)">
			<rect x="79.865" y="123.38" width="50" height="50" rx="2.132" ry="2.1538" fill="#ffd6d0" fill-rule="evenodd" style="paint-order:stroke fill markers"/>
			<g transform="translate(-25.027 -27.292)">
				<path transform="scale(.26458)" d="m460.4 619.85-3.5352 1.0098-6.3144 82.328 10.354-1.7676 3.0312 11.617-14.395 1.0098 10.102 12.627 84.854-0.50586-17.678-86.873zm31.512 37.525c1.8897-0.0382 3.8191 0.49682 5.5801 1.4961 5.5118 4.2096 2.5616 4.6418 7.7363 1.0469 1.9322-1.3183 4.1212-2.3027 6.584-2.1621s4.7952 1.5128 6.6816 3.6699c12.884 15.22-3.5056 24.92-15.77 36.162-1.1003 0.7725-1.3192 1.9698-2.3457 1.1016-7.2831-6.0873-23.536-17.494-21.037-29.836 2.7131-6.2042 5.7927-10.095 10.701-11.246 0.61356-0.14391 1.2392-0.21968 1.8691-0.23242z" fill="#7ad7d2"/>
				<path d="m122.39 162.15c1.4048 10.339-0.79422 20.671-0.72641 30.77-2.4557-1.5042-4.3513-2.871-5.7463-5.6127 2.2814-7.5731 2.5935-16.241 2.7996-24.858zm-0.72641 30.77c7.6115 0.33479 14.948-0.0173 22.206-0.56696-1.3855-7.8435-2.1397-16.424-2.4568-25.513-7.4101-1.1093-13.241-2.9204-19.088-4.7247 0.24307 10.639-0.0139 20.878-0.66145 30.805z" fill="none" stroke="#000" stroke-linejoin="round" stroke-width="2.165"/>
				<path d="m116.04 187.11c2.0476-0.11057 3.5684-0.44069 5.0948-0.76841" fill="none" stroke="#000" stroke-width="1.165"/>
				<path d="m127.94 157.82c-0.49324-0.10732-1.0461-0.0842-1.623 0.11914-1.154 0.40667-1.6226 0.86537-2.921 2.8713 0.26953 0.17448 0.53906 0.34895 0.80859 0.52343 1.2294-1.8992 1.5793-2.1838 2.4328-2.4846 0.8535-0.30079 1.6238 0.24033 2.0792 0.66362 0.16372-0.26908 0.32744-0.53817 0.49116-0.80725-0.34005-0.31614-0.77433-0.77835-1.2676-0.88567z" color="#000000" color-rendering="auto" dominant-baseline="auto" image-rendering="auto" shape-rendering="auto" solid-color="#000000" style="font-feature-settings:normal;font-variant-alternates:normal;font-variant-caps:normal;font-variant-ligatures:normal;font-variant-numeric:normal;font-variant-position:normal;isolation:auto;mix-blend-mode:normal;shape-padding:0;text-decoration-color:#000000;text-decoration-line:none;text-decoration-style:solid;text-indent:0;text-orientation:mixed;text-transform:none;white-space:normal"/>
				<path d="m132.46 157.46c-0.36565-0.0421-0.73224-4e-4 -1.0723 0.12304-1.3601 0.49379-2.3156 1.9483-3.1074 3.8457-0.79184 1.8974-1.3706 4.2996-1.6348 6.8496l1.3574 0.14062c0.25199-2.4321 0.81242-4.7283 1.5371-6.4648s1.6622-2.8511 2.3144-3.0879c0.32614-0.11841 0.57219-0.10753 0.94141 0.125 0.36922 0.23252 0.83238 0.74149 1.2988 1.6094 0.93289 1.7358 1.8704 4.8572 2.6094 9.6875l1.3496-0.20508c-0.75143-4.9117-1.6851-8.1366-2.7559-10.129-0.53537-0.99614-1.1071-1.6976-1.7734-2.1172-0.33315-0.20982-0.6988-0.33483-1.0644-0.37695z" color="#000000" color-rendering="auto" dominant-baseline="auto" fill="#010101" image-rendering="auto" shape-rendering="auto" solid-color="#000000" stroke="#ffd6d0" stroke-width=".465" style="font-feature-settings:normal;font-variant-alternates:normal;font-variant-caps:normal;font-variant-ligatures:normal;font-variant-numeric:normal;font-variant-position:normal;isolation:auto;mix-blend-mode:normal;shape-padding:0;text-decoration-color:#000000;text-decoration-line:none;text-decoration-style:solid;text-indent:0;text-orientation:mixed;text-transform:none;white-space:normal"/>
				<g>
					<path d="m127.77 167.17a1.1664 1.1585 0 0 1 0.72864 1.297 1.1664 1.1585 0 0 1-1.1551 0.9432 1.1664 1.1585 0 0 1-1.1404-0.96079 1.1664 1.1585 0 0 1 0.7487-1.2856" fill-rule="evenodd" style="paint-order:stroke fill markers"/>
					<path d="m137.48 169.11a1.1664 1.1585 0 0 1 0.72863 1.297 1.1664 1.1585 0 0 1-1.1551 0.9432 1.1664 1.1585 0 0 1-1.1404-0.96079 1.1664 1.1585 0 0 1 0.74869-1.2856" fill-rule="evenodd" style="paint-order:stroke fill markers"/>
					<path d="m129.61 173.94c-1.2987 0.30461-2.1136 1.3337-2.8315 2.9753-0.66109 3.2655 3.639 6.2834 5.566 7.894 0.27159 0.22973 0.32986-0.0867 0.62099-0.29109 3.2448-2.9744 7.5809-5.5415 4.172-9.5684-0.49911-0.57073-1.116-0.9335-1.7676-0.9707s-1.231 0.22346-1.7422 0.57227c-0.31314 0.21365-0.60584 0.51949-0.90234 0.79882-0.37476-0.39793-0.74046-0.84687-1.1445-1.0762-0.62122-0.35252-1.3214-0.48629-1.9707-0.33398zm0.35742 1.5234c0.24258-0.0569 0.48254-0.0309 0.83985 0.17188 0.35731 0.20276 0.80464 0.60175 1.2871 1.2383 0.28953 0.38075 0.84987 0.41498 1.1836 0.0723 0.45782-0.47168 0.87858-0.86147 1.2305-1.1016 0.35189-0.24009 0.60444-0.31238 0.77344-0.30273 0.169 0.01 0.35989 0.074 0.67773 0.4375 2.1247 2.5609-1.6172 5.6503-3.418 6.8926-1.8132-1.4257-6.6559-6.274-2.5742-7.4082z" color="#000000" color-rendering="auto" dominant-baseline="auto" image-rendering="auto" shape-rendering="auto" solid-color="#000000" style="font-feature-settings:normal;font-variant-alternates:normal;font-variant-caps:normal;font-variant-ligatures:normal;font-variant-numeric:normal;font-variant-position:normal;isolation:auto;mix-blend-mode:normal;paint-order:stroke fill markers;shape-padding:0;text-decoration-color:#000000;text-decoration-line:none;text-decoration-style:solid;text-indent:0;text-orientation:mixed;text-transform:none;white-space:normal"/>
				</g>
			</g>
		</g>
	</g>
</svg>
