<?xml version="1.0" standalone="no"?>
<!DOCTYPE svg PUBLIC "-//W3C//DTD SVG 20010904//EN"
 "http://www.w3.org/TR/2001/REC-SVG-20010904/DTD/svg10.dtd">
<svg version="1.0" xmlns="http://www.w3.org/2000/svg"
 width="700.000000pt" height="700.000000pt" viewBox="0 0 700.000000 700.000000"
 preserveAspectRatio="xMidYMid meet">
<metadata>
Created by potrace 1.11, written by Peter Selinger 2001-2013
</metadata>
<g transform="translate(0.000000,700.000000) scale(0.100000,-0.100000)"
fill="#000000" stroke="none">
<path d="M3671 6014 c-86 -42 -185 -134 -250 -234 -52 -80 -138 -256 -181
-372 -31 -85 -32 -86 -58 -77 -15 5 -103 32 -197 60 -241 72 -276 83 -404 122
-114 35 -134 37 -260 23 -25 -3 -77 -8 -116 -11 -38 -3 -97 -7 -130 -10 -201
-16 -225 -23 -263 -79 -27 -40 -28 -42 -37 -402 -4 -143 -8 -295 -10 -339 -2
-44 -6 -154 -10 -245 -3 -91 -8 -185 -10 -210 -2 -25 -6 -99 -10 -165 -3 -66
-8 -140 -10 -165 -3 -25 -7 -79 -10 -120 -6 -95 -24 -304 -30 -350 -2 -19 -7
-60 -10 -90 -3 -30 -8 -66 -10 -80 -2 -14 -7 -54 -11 -90 -3 -36 -8 -72 -9
-82 -4 -18 -14 -85 -20 -133 -4 -33 -14 -97 -21 -135 -2 -14 -7 -41 -10 -60
-4 -28 -31 -168 -60 -315 -11 -59 -18 -89 -41 -185 -13 -58 -42 -168 -64 -246
-21 -77 -39 -150 -39 -161 0 -11 14 -49 32 -84 97 -195 279 -415 468 -565 76
-59 314 -224 325 -224 3 0 23 -12 44 -26 24 -15 58 -27 87 -29 117 -10 538
-18 884 -18 434 1 703 8 1150 28 185 9 431 23 530 30 30 3 96 7 145 10 50 3
117 7 150 10 33 2 107 7 165 11 209 13 258 67 225 247 -8 45 -17 96 -19 112
-12 69 -46 296 -61 400 -3 22 -8 51 -10 65 -2 14 -7 43 -10 65 -2 22 -14 110
-25 195 -11 85 -22 175 -25 200 -3 25 -7 61 -10 80 -2 19 -7 60 -10 90 -3 30
-8 71 -10 90 -2 19 -7 64 -11 100 -3 36 -8 76 -9 90 -2 14 -6 59 -10 100 -3
41 -8 93 -10 115 -4 44 -13 140 -20 225 -2 30 -7 82 -10 115 -10 120 -20 262
-30 425 -2 41 -7 111 -10 155 -14 231 -19 322 -30 605 -10 264 -13 298 -29
328 -21 40 -62 69 -111 77 -22 4 -49 9 -60 11 -11 2 -40 7 -65 10 -50 6 -466
82 -490 89 -10 3 -24 39 -39 97 -102 394 -242 693 -392 838 -84 83 -154 114
-259 117 -80 2 -90 0 -159 -33z m235 -180 c119 -79 242 -302 340 -619 49 -158
51 -175 28 -170 -11 3 -131 32 -269 66 -137 33 -257 63 -265 64 -70 16 -327
90 -334 96 -18 16 82 249 156 365 57 88 141 180 187 204 52 28 110 25 157 -6z
m-1613 -638 c6 -38 0 -2006 -7 -2171 -2 -66 -7 -194 -10 -285 -4 -91 -8 -174
-10 -185 -2 -11 -7 -65 -10 -120 -15 -223 -26 -348 -30 -352 -4 -4 -277 -59
-336 -68 -25 -3 -63 -8 -85 -11 -22 -3 -46 -7 -52 -9 -18 -6 -17 -2 17 131 29
111 101 453 114 539 4 22 13 78 21 125 8 47 17 105 20 130 3 25 10 72 15 105
5 33 12 85 15 115 3 30 8 66 10 80 5 35 14 114 20 185 3 33 8 76 10 95 3 19 7
67 10 105 3 39 7 90 9 115 2 25 7 90 11 145 4 55 8 120 10 145 2 25 7 101 10
170 4 69 8 154 10 190 7 129 22 565 26 748 1 60 5 92 13 93 6 1 33 3 60 5 27
2 50 5 52 6 1 2 20 3 42 4 37 1 41 -1 45 -30z m406 -36 c34 -10 132 -40 219
-65 86 -26 169 -51 183 -56 l27 -10 -19 -82 c-22 -101 -37 -190 -38 -234 -1
-13 -14 -35 -31 -49 -16 -15 -37 -46 -46 -70 -51 -134 88 -261 218 -200 95 45
124 160 62 241 -13 18 -22 34 -20 36 2 2 7 26 11 54 5 43 29 171 40 215 2 8 4
20 4 27 1 8 28 4 89 -13 141 -40 750 -193 828 -208 160 -31 146 -23 160 -101
4 -22 8 -49 11 -60 2 -11 10 -53 17 -94 l14 -74 -39 -39 c-85 -88 -51 -222 67
-263 137 -47 264 111 187 233 -7 12 -25 86 -38 163 -27 150 -29 173 -17 166 4
-3 88 -20 187 -38 99 -18 183 -35 186 -38 4 -3 10 -89 14 -191 3 -102 8 -201
10 -220 2 -19 6 -100 10 -180 3 -80 8 -167 10 -195 2 -27 6 -95 9 -150 4 -55
8 -125 11 -155 2 -30 7 -93 11 -140 3 -47 7 -101 9 -120 2 -19 6 -71 10 -115
3 -44 8 -98 10 -120 2 -22 7 -71 10 -110 3 -38 8 -89 11 -112 2 -24 6 -64 9
-90 3 -27 7 -68 10 -93 3 -25 7 -70 10 -100 3 -30 7 -68 9 -85 2 -16 7 -57 10
-90 12 -107 17 -150 21 -175 2 -14 13 -97 25 -185 11 -88 23 -176 25 -195 8
-56 26 -173 31 -200 2 -14 7 -45 10 -70 3 -25 12 -79 19 -120 7 -41 10 -78 7
-81 -7 -7 -72 -12 -267 -24 -44 -3 -111 -7 -150 -10 -38 -2 -113 -7 -165 -10
-52 -3 -134 -7 -181 -10 -48 -3 -149 -8 -225 -11 -77 -3 -182 -7 -234 -10
-127 -6 -1386 -12 -1473 -6 l-69 4 6 101 c8 124 14 217 21 362 3 61 8 148 10
195 6 100 13 260 20 455 7 200 16 374 20 415 2 19 6 73 10 120 3 47 8 108 10
135 2 28 7 88 10 135 4 47 8 105 10 130 2 25 7 104 11 175 4 72 8 148 10 170
10 155 18 476 18 730 0 316 -7 492 -29 743 -4 45 -5 82 -2 82 2 0 32 -9 66
-20z m-484 -3347 c-2 -54 -7 -174 -10 -268 -4 -93 -8 -172 -11 -174 -9 -9
-165 119 -254 209 -99 100 -211 249 -188 251 7 0 20 2 28 3 8 2 40 7 70 11 55
7 69 9 125 19 17 3 46 8 65 11 19 3 62 12 95 19 33 7 65 14 72 15 9 1 11 -24
8 -96z"/>
<path d="M3370 3779 c-61 -12 -153 -61 -206 -111 -52 -49 -123 -153 -167 -245
-78 -164 -28 -374 143 -598 64 -84 207 -233 310 -321 25 -22 50 -43 56 -49 7
-5 31 -26 55 -45 24 -19 77 -63 119 -97 41 -35 82 -63 90 -63 8 0 33 17 55 38
33 31 87 79 201 177 374 322 493 463 548 645 35 114 14 266 -52 380 -161 281
-368 354 -584 207 -35 -24 -81 -55 -102 -70 -22 -15 -43 -26 -47 -25 -4 2 -34
28 -66 58 -70 67 -94 83 -159 105 -58 20 -132 25 -194 14z"/>
<path d="M3070 6002 c-38 -5 -130 -40 -180 -69 -63 -36 -147 -127 -230 -248
l-69 -103 55 -37 c31 -20 57 -35 58 -33 59 88 160 222 191 252 61 61 146 99
220 100 49 0 71 -6 122 -33 34 -18 70 -42 79 -52 16 -18 18 -17 51 35 18 30
31 60 28 67 -4 8 -31 34 -61 58 -76 61 -152 79 -264 63z"/>
</g>
</svg>
